<svg width="40" height="10" viewBox="0 0 40 10" fill="none" xmlns="http://www.w3.org/2000/svg">
<path d="M3 4.63636C3 4.17045 3.11364 3.74574 3.34091 3.36222C3.56818 2.97869 3.87358 2.6733 4.2571 2.44602C4.64063 2.21875 5.06534 2.10511 5.53125 2.10511C5.93466 2.10511 6.30682 2.19176 6.64773 2.36506C6.99148 2.53835 7.27557 2.77557 7.5 3.0767C7.72443 3.375 7.86364 3.71307 7.91761 4.09091H6.88636C6.82955 3.7983 6.67188 3.55966 6.41335 3.375C6.15483 3.1875 5.8608 3.09375 5.53125 3.09375C5.24716 3.09375 4.98864 3.16335 4.75568 3.30256C4.52273 3.44176 4.33665 3.62784 4.19744 3.8608C4.05824 4.09375 3.98864 4.35227 3.98864 4.63636C3.98864 4.92045 4.05824 5.17898 4.19744 5.41193C4.33665 5.64489 4.52273 5.83097 4.75568 5.97017C4.98864 6.10937 5.24716 6.17898 5.53125 6.17898C5.8608 6.17898 6.1392 6.08665 6.36648 5.90199C6.59659 5.71449 6.74148 5.47443 6.80114 5.18182H7.83239C7.77841 5.55966 7.64631 5.89915 7.43608 6.20028C7.22585 6.49858 6.95597 6.73437 6.62642 6.90767C6.29972 7.08097 5.93466 7.16761 5.53125 7.16761C5.06534 7.16761 4.64063 7.05398 4.2571 6.8267C3.87358 6.59943 3.56818 6.29403 3.34091 5.91051C3.11364 5.52699 3 5.10227 3 4.63636ZM5.48864 9.13636C4.86932 9.13636 4.28693 9.01989 3.74148 8.78693C3.19886 8.55398 2.72017 8.23153 2.3054 7.8196C1.89347 7.40483 1.5696 6.92614 1.33381 6.38352C1.10085 5.84091 0.985795 5.25852 0.988636 4.63636C0.991477 4.0142 1.10938 3.43182 1.34233 2.8892C1.57813 2.34659 1.90199 1.86932 2.31392 1.45739C2.72585 1.04261 3.20313 0.71875 3.74574 0.485795C4.28835 0.252841 4.86932 0.136364 5.48864 0.136364C6.1108 0.136364 6.69318 0.252841 7.2358 0.485795C7.78125 0.71875 8.25852 1.04261 8.66761 1.45739C9.07955 1.86932 9.40199 2.34659 9.63494 2.8892C9.8679 3.43182 9.9858 4.0142 9.98864 4.63636C9.99148 5.25852 9.87642 5.84091 9.64347 6.38352C9.41051 6.92614 9.08807 7.40483 8.67614 7.8196C8.2642 8.23153 7.78551 8.55398 7.24006 8.78693C6.6946 9.01989 6.1108 9.13636 5.48864 9.13636ZM5.48864 8.14773C5.97443 8.14773 6.4304 8.05682 6.85653 7.875C7.28267 7.69318 7.65625 7.44176 7.97727 7.12074C8.2983 6.79972 8.54972 6.42756 8.73153 6.00426C8.91335 5.57812 9.00284 5.12358 9 4.64062C8.99716 4.15483 8.90483 3.69886 8.72301 3.27273C8.54119 2.84659 8.28977 2.47301 7.96875 2.15199C7.64773 1.83097 7.27557 1.57955 6.85227 1.39773C6.42898 1.21591 5.97443 1.125 5.48864 1.125C5.00568 1.125 4.55256 1.21591 4.12926 1.39773C3.70597 1.57955 3.33381 1.83239 3.01278 2.15625C2.69176 2.47727 2.43892 2.85085 2.25426 3.27699C2.07244 3.70028 1.98011 4.15483 1.97727 4.64062C1.97443 5.12074 2.06392 5.57386 2.24574 6C2.42756 6.4233 2.67898 6.79545 3 7.11648C3.32386 7.4375 3.69744 7.69034 4.12074 7.875C4.54688 8.05682 5.00284 8.14773 5.48864 8.14773ZM11.8839 9V8.23295L14.7646 5.07955C15.1026 4.71023 15.381 4.3892 15.5998 4.11648C15.8185 3.84091 15.9805 3.58239 16.0856 3.34091C16.1935 3.09659 16.2475 2.84091 16.2475 2.57386C16.2475 2.26705 16.1737 2.00142 16.0259 1.77699C15.881 1.55256 15.6822 1.37926 15.4293 1.2571C15.1765 1.13494 14.8924 1.07386 14.5771 1.07386C14.2418 1.07386 13.9492 1.14347 13.6992 1.28267C13.4521 1.41903 13.2603 1.6108 13.1239 1.85795C12.9904 2.10511 12.9237 2.39489 12.9237 2.72727H11.918C11.918 2.21591 12.0359 1.76705 12.2717 1.38068C12.5075 0.994318 12.8285 0.693181 13.2347 0.477272C13.6438 0.261363 14.1026 0.153409 14.6112 0.153409C15.1225 0.153409 15.5756 0.261363 15.9705 0.477272C16.3654 0.693181 16.6751 0.984375 16.8995 1.35085C17.1239 1.71733 17.2362 2.125 17.2362 2.57386C17.2362 2.89489 17.1779 3.20881 17.0614 3.51562C16.9478 3.8196 16.7489 4.15909 16.4648 4.53409C16.1836 4.90625 15.793 5.3608 15.293 5.89773L13.3327 7.99432V8.0625H17.3896V9H11.8839ZM21.9961 9.11932C21.354 9.11932 20.8072 8.9446 20.3555 8.59517C19.9038 8.2429 19.5586 7.73295 19.32 7.06534C19.0813 6.39489 18.962 5.58523 18.962 4.63636C18.962 3.69318 19.0813 2.88778 19.32 2.22017C19.5614 1.54972 19.908 1.03835 20.3597 0.686079C20.8143 0.330966 21.3597 0.153409 21.9961 0.153409C22.6325 0.153409 23.1765 0.330966 23.6282 0.686079C24.0827 1.03835 24.4293 1.54972 24.668 2.22017C24.9094 2.88778 25.0302 3.69318 25.0302 4.63636C25.0302 5.58523 24.9109 6.39489 24.6722 7.06534C24.4336 7.73295 24.0884 8.2429 23.6367 8.59517C23.185 8.9446 22.6381 9.11932 21.9961 9.11932ZM21.9961 8.18182C22.6325 8.18182 23.1268 7.875 23.479 7.26136C23.8313 6.64773 24.0075 5.77273 24.0075 4.63636C24.0075 3.88068 23.9265 3.23722 23.7646 2.70597C23.6055 2.17472 23.3754 1.76989 23.0742 1.49148C22.7759 1.21307 22.4165 1.07386 21.9961 1.07386C21.3654 1.07386 20.8725 1.38494 20.5174 2.0071C20.1623 2.62642 19.9847 3.50284 19.9847 4.63636C19.9847 5.39205 20.0643 6.03409 20.2234 6.5625C20.3825 7.09091 20.6112 7.4929 20.9094 7.76847C21.2106 8.04403 21.5728 8.18182 21.9961 8.18182ZM26.6495 9V8.23295L29.5302 5.07955C29.8683 4.71023 30.1467 4.3892 30.3654 4.11648C30.5842 3.84091 30.7461 3.58239 30.8512 3.34091C30.9592 3.09659 31.0131 2.84091 31.0131 2.57386C31.0131 2.26705 30.9393 2.00142 30.7915 1.77699C30.6467 1.55256 30.4478 1.37926 30.195 1.2571C29.9421 1.13494 29.658 1.07386 29.3427 1.07386C29.0075 1.07386 28.7148 1.14347 28.4648 1.28267C28.2177 1.41903 28.0259 1.6108 27.8896 1.85795C27.756 2.10511 27.6893 2.39489 27.6893 2.72727H26.6836C26.6836 2.21591 26.8015 1.76705 27.0373 1.38068C27.2731 0.994318 27.5941 0.693181 28.0004 0.477272C28.4094 0.261363 28.8683 0.153409 29.3768 0.153409C29.8881 0.153409 30.3413 0.261363 30.7362 0.477272C31.131 0.693181 31.4407 0.984375 31.6651 1.35085C31.8896 1.71733 32.0018 2.125 32.0018 2.57386C32.0018 2.89489 31.9435 3.20881 31.8271 3.51562C31.7134 3.8196 31.5146 4.15909 31.2305 4.53409C30.9492 4.90625 30.5586 5.3608 30.0586 5.89773L28.0984 7.99432V8.0625H32.1552V9H26.6495ZM36.7617 9.11932C36.1197 9.11932 35.5728 8.9446 35.1211 8.59517C34.6694 8.2429 34.3242 7.73295 34.0856 7.06534C33.8469 6.39489 33.7276 5.58523 33.7276 4.63636C33.7276 3.69318 33.8469 2.88778 34.0856 2.22017C34.3271 1.54972 34.6737 1.03835 35.1254 0.686079C35.5799 0.330966 36.1254 0.153409 36.7617 0.153409C37.3981 0.153409 37.9421 0.330966 38.3938 0.686079C38.8484 1.03835 39.195 1.54972 39.4336 2.22017C39.6751 2.88778 39.7958 3.69318 39.7958 4.63636C39.7958 5.58523 39.6765 6.39489 39.4379 7.06534C39.1992 7.73295 38.854 8.2429 38.4023 8.59517C37.9506 8.9446 37.4038 9.11932 36.7617 9.11932ZM36.7617 8.18182C37.3981 8.18182 37.8924 7.875 38.2447 7.26136C38.5969 6.64773 38.7731 5.77273 38.7731 4.63636C38.7731 3.88068 38.6921 3.23722 38.5302 2.70597C38.3711 2.17472 38.141 1.76989 37.8398 1.49148C37.5415 1.21307 37.1822 1.07386 36.7617 1.07386C36.131 1.07386 35.6381 1.38494 35.283 2.0071C34.9279 2.62642 34.7504 3.50284 34.7504 4.63636C34.7504 5.39205 34.8299 6.03409 34.989 6.5625C35.1481 7.09091 35.3768 7.4929 35.6751 7.76847C35.9762 8.04403 36.3384 8.18182 36.7617 8.18182Z" fill="#A0A0A0"/>
</svg>
